<mxfile host="app.diagrams.net" modified="2023-12-28T20:52:05.523Z" agent="Mozilla/5.0 (Windows NT 10.0; Win64; x64) AppleWebKit/537.36 (KHTML, like Gecko) Chrome/120.0.0.0 Safari/537.36" etag="KNB9Od1G5I8N7xDnBIk5" version="22.1.15" type="github">
  <diagram name="Page-1" id="g56cd_pH3Q_7nrnR1t8H">
    <mxGraphModel dx="3554" dy="2522" grid="1" gridSize="10" guides="1" tooltips="1" connect="1" arrows="1" fold="1" page="1" pageScale="1" pageWidth="827" pageHeight="1169" math="0" shadow="0">
      <root>
        <mxCell id="0" />
        <mxCell id="1" parent="0" />
        <mxCell id="dsg2NjV3mB8BH0yMZsEI-1" value="Business" style="shape=umlActor;verticalLabelPosition=bottom;verticalAlign=top;html=1;outlineConnect=0;" vertex="1" parent="1">
          <mxGeometry x="455" y="-60" width="30" height="60" as="geometry" />
        </mxCell>
        <mxCell id="dsg2NjV3mB8BH0yMZsEI-2" value="Domain&lt;br&gt;Team" style="ellipse;whiteSpace=wrap;html=1;" vertex="1" parent="1">
          <mxGeometry x="340" y="90" width="270" height="160" as="geometry" />
        </mxCell>
        <mxCell id="dsg2NjV3mB8BH0yMZsEI-3" value="Analytics&lt;br&gt;BusinessIntelligence" style="rounded=1;whiteSpace=wrap;html=1;" vertex="1" parent="1">
          <mxGeometry x="410" y="70" width="120" height="60" as="geometry" />
        </mxCell>
        <mxCell id="dsg2NjV3mB8BH0yMZsEI-7" style="edgeStyle=orthogonalEdgeStyle;rounded=0;orthogonalLoop=1;jettySize=auto;html=1;entryX=0.5;entryY=0;entryDx=0;entryDy=0;dashed=1;fontSize=12;" edge="1" parent="1" target="dsg2NjV3mB8BH0yMZsEI-3" source="dsg2NjV3mB8BH0yMZsEI-1">
          <mxGeometry relative="1" as="geometry">
            <mxPoint x="597.36" y="30.75" as="sourcePoint" />
            <mxPoint x="529.9999999999999" y="30.000000000000057" as="targetPoint" />
          </mxGeometry>
        </mxCell>
        <mxCell id="dsg2NjV3mB8BH0yMZsEI-9" value="Business" style="shape=umlActor;verticalLabelPosition=bottom;verticalAlign=top;html=1;outlineConnect=0;" vertex="1" parent="1">
          <mxGeometry x="360" y="150" width="20" height="40" as="geometry" />
        </mxCell>
        <mxCell id="dsg2NjV3mB8BH0yMZsEI-10" value="Engineer" style="shape=umlActor;verticalLabelPosition=bottom;verticalAlign=top;html=1;outlineConnect=0;" vertex="1" parent="1">
          <mxGeometry x="570" y="150" width="20" height="40" as="geometry" />
        </mxCell>
        <mxCell id="dsg2NjV3mB8BH0yMZsEI-11" style="edgeStyle=orthogonalEdgeStyle;rounded=0;orthogonalLoop=1;jettySize=auto;html=1;dashed=1;fontSize=12;entryX=1;entryY=0.5;entryDx=0;entryDy=0;exitX=0;exitY=1;exitDx=0;exitDy=0;" edge="1" parent="1" source="dsg2NjV3mB8BH0yMZsEI-3" target="dsg2NjV3mB8BH0yMZsEI-122">
          <mxGeometry relative="1" as="geometry">
            <mxPoint x="430" y="130" as="sourcePoint" />
            <mxPoint x="310" y="290" as="targetPoint" />
            <Array as="points">
              <mxPoint x="410" y="250" />
            </Array>
          </mxGeometry>
        </mxCell>
        <mxCell id="dsg2NjV3mB8BH0yMZsEI-25" value="" style="ellipse;whiteSpace=wrap;html=1;" vertex="1" parent="1">
          <mxGeometry x="711" y="200" width="151" height="100" as="geometry" />
        </mxCell>
        <mxCell id="dsg2NjV3mB8BH0yMZsEI-26" value="Data Product" style="rounded=1;whiteSpace=wrap;html=1;" vertex="1" parent="1">
          <mxGeometry x="742.25" y="227.5" width="88.5" height="45" as="geometry" />
        </mxCell>
        <mxCell id="dsg2NjV3mB8BH0yMZsEI-30" value="Sales Domain" style="text;html=1;align=center;verticalAlign=middle;resizable=0;points=[];autosize=1;strokeColor=none;fillColor=none;" vertex="1" parent="1">
          <mxGeometry x="737.75" y="205" width="100" height="30" as="geometry" />
        </mxCell>
        <mxCell id="dsg2NjV3mB8BH0yMZsEI-31" value="" style="ellipse;whiteSpace=wrap;html=1;" vertex="1" parent="1">
          <mxGeometry x="853" y="285" width="370" height="230" as="geometry" />
        </mxCell>
        <mxCell id="dsg2NjV3mB8BH0yMZsEI-35" value="Sales Domain" style="text;html=1;align=center;verticalAlign=middle;resizable=0;points=[];autosize=1;strokeColor=none;fillColor=none;" vertex="1" parent="1">
          <mxGeometry x="988" y="285" width="100" height="30" as="geometry" />
        </mxCell>
        <mxCell id="dsg2NjV3mB8BH0yMZsEI-40" style="edgeStyle=orthogonalEdgeStyle;rounded=0;orthogonalLoop=1;jettySize=auto;html=1;" edge="1" parent="1" source="dsg2NjV3mB8BH0yMZsEI-36" target="dsg2NjV3mB8BH0yMZsEI-37">
          <mxGeometry relative="1" as="geometry" />
        </mxCell>
        <mxCell id="dsg2NjV3mB8BH0yMZsEI-41" value="&lt;font style=&quot;font-size: 6px;&quot;&gt;publish&lt;/font&gt;" style="edgeLabel;html=1;align=center;verticalAlign=middle;resizable=0;points=[];" vertex="1" connectable="0" parent="dsg2NjV3mB8BH0yMZsEI-40">
          <mxGeometry x="-0.3235" relative="1" as="geometry">
            <mxPoint as="offset" />
          </mxGeometry>
        </mxCell>
        <mxCell id="dsg2NjV3mB8BH0yMZsEI-36" value="Data Product" style="rounded=1;whiteSpace=wrap;html=1;" vertex="1" parent="1">
          <mxGeometry x="993.75" y="385" width="88.5" height="45" as="geometry" />
        </mxCell>
        <mxCell id="dsg2NjV3mB8BH0yMZsEI-37" value="Data Contract" style="rounded=1;whiteSpace=wrap;html=1;" vertex="1" parent="1">
          <mxGeometry x="1124.5" y="385" width="88.5" height="45" as="geometry" />
        </mxCell>
        <mxCell id="dsg2NjV3mB8BH0yMZsEI-38" value="Analytics" style="rounded=1;whiteSpace=wrap;html=1;" vertex="1" parent="1">
          <mxGeometry x="993.75" y="315" width="88.5" height="45" as="geometry" />
        </mxCell>
        <mxCell id="dsg2NjV3mB8BH0yMZsEI-39" value="Sales Data" style="rounded=1;whiteSpace=wrap;html=1;" vertex="1" parent="1">
          <mxGeometry x="873" y="350" width="88.5" height="45" as="geometry" />
        </mxCell>
        <mxCell id="dsg2NjV3mB8BH0yMZsEI-42" style="edgeStyle=orthogonalEdgeStyle;rounded=0;orthogonalLoop=1;jettySize=auto;html=1;entryX=0.5;entryY=0;entryDx=0;entryDy=0;dashed=1;fontSize=12;exitX=0.5;exitY=1;exitDx=0;exitDy=0;" edge="1" parent="1" source="dsg2NjV3mB8BH0yMZsEI-38" target="dsg2NjV3mB8BH0yMZsEI-36">
          <mxGeometry relative="1" as="geometry">
            <mxPoint x="1037.73" y="350" as="sourcePoint" />
            <mxPoint x="1037.73" y="420" as="targetPoint" />
          </mxGeometry>
        </mxCell>
        <mxCell id="dsg2NjV3mB8BH0yMZsEI-43" style="edgeStyle=orthogonalEdgeStyle;rounded=0;orthogonalLoop=1;jettySize=auto;html=1;exitX=1;exitY=0.5;exitDx=0;exitDy=0;entryX=0;entryY=0.5;entryDx=0;entryDy=0;" edge="1" parent="1" source="dsg2NjV3mB8BH0yMZsEI-39" target="dsg2NjV3mB8BH0yMZsEI-36">
          <mxGeometry relative="1" as="geometry">
            <mxPoint x="958.75" y="407.39" as="sourcePoint" />
            <mxPoint x="993.75" y="407.39" as="targetPoint" />
          </mxGeometry>
        </mxCell>
        <mxCell id="dsg2NjV3mB8BH0yMZsEI-44" value="&lt;span style=&quot;font-size: 6px;&quot;&gt;ingest&lt;/span&gt;" style="edgeLabel;html=1;align=center;verticalAlign=middle;resizable=0;points=[];" vertex="1" connectable="0" parent="dsg2NjV3mB8BH0yMZsEI-43">
          <mxGeometry x="-0.3235" relative="1" as="geometry">
            <mxPoint as="offset" />
          </mxGeometry>
        </mxCell>
        <mxCell id="dsg2NjV3mB8BH0yMZsEI-47" style="edgeStyle=orthogonalEdgeStyle;rounded=0;orthogonalLoop=1;jettySize=auto;html=1;dashed=1;fontSize=12;exitX=0.5;exitY=1;exitDx=0;exitDy=0;entryX=0.5;entryY=1;entryDx=0;entryDy=0;" edge="1" parent="1" source="dsg2NjV3mB8BH0yMZsEI-36" target="dsg2NjV3mB8BH0yMZsEI-26">
          <mxGeometry relative="1" as="geometry">
            <mxPoint x="967.1500000000001" y="482.5" as="sourcePoint" />
            <mxPoint x="967.25" y="507.5" as="targetPoint" />
            <Array as="points">
              <mxPoint x="1038.25" y="485" />
              <mxPoint x="786.25" y="485" />
            </Array>
          </mxGeometry>
        </mxCell>
        <mxCell id="dsg2NjV3mB8BH0yMZsEI-64" style="edgeStyle=orthogonalEdgeStyle;rounded=0;orthogonalLoop=1;jettySize=auto;html=1;entryX=0;entryY=0.5;entryDx=0;entryDy=0;" edge="1" parent="1" source="dsg2NjV3mB8BH0yMZsEI-63" target="dsg2NjV3mB8BH0yMZsEI-36">
          <mxGeometry relative="1" as="geometry" />
        </mxCell>
        <mxCell id="dsg2NjV3mB8BH0yMZsEI-66" value="&lt;font style=&quot;font-size: 6px;&quot;&gt;ingest&lt;/font&gt;" style="edgeLabel;html=1;align=center;verticalAlign=middle;resizable=0;points=[];" vertex="1" connectable="0" parent="dsg2NjV3mB8BH0yMZsEI-64">
          <mxGeometry x="-0.349" y="-1" relative="1" as="geometry">
            <mxPoint as="offset" />
          </mxGeometry>
        </mxCell>
        <mxCell id="dsg2NjV3mB8BH0yMZsEI-63" value="Flight Confirmed&lt;br&gt;&amp;nbsp;Data" style="rounded=1;whiteSpace=wrap;html=1;" vertex="1" parent="1">
          <mxGeometry x="873" y="405" width="88.5" height="45" as="geometry" />
        </mxCell>
        <mxCell id="dsg2NjV3mB8BH0yMZsEI-67" value="" style="ellipse;whiteSpace=wrap;html=1;" vertex="1" parent="1">
          <mxGeometry x="136.5" y="465" width="151" height="100" as="geometry" />
        </mxCell>
        <mxCell id="dsg2NjV3mB8BH0yMZsEI-68" value="Data Product" style="rounded=1;whiteSpace=wrap;html=1;" vertex="1" parent="1">
          <mxGeometry x="167.75" y="492.5" width="88.5" height="45" as="geometry" />
        </mxCell>
        <mxCell id="dsg2NjV3mB8BH0yMZsEI-69" value="Production&amp;nbsp;Domain" style="text;html=1;align=center;verticalAlign=middle;resizable=0;points=[];autosize=1;strokeColor=none;fillColor=none;" vertex="1" parent="1">
          <mxGeometry x="148.25" y="470" width="130" height="30" as="geometry" />
        </mxCell>
        <mxCell id="dsg2NjV3mB8BH0yMZsEI-70" value="" style="ellipse;whiteSpace=wrap;html=1;" vertex="1" parent="1">
          <mxGeometry x="-182.5" y="555" width="370" height="230" as="geometry" />
        </mxCell>
        <mxCell id="dsg2NjV3mB8BH0yMZsEI-71" value="Production&amp;nbsp;Domain" style="text;html=1;align=center;verticalAlign=middle;resizable=0;points=[];autosize=1;strokeColor=none;fillColor=none;" vertex="1" parent="1">
          <mxGeometry x="-62.5" y="555" width="130" height="30" as="geometry" />
        </mxCell>
        <mxCell id="dsg2NjV3mB8BH0yMZsEI-72" style="edgeStyle=orthogonalEdgeStyle;rounded=0;orthogonalLoop=1;jettySize=auto;html=1;" edge="1" parent="1" source="dsg2NjV3mB8BH0yMZsEI-74" target="dsg2NjV3mB8BH0yMZsEI-75">
          <mxGeometry relative="1" as="geometry" />
        </mxCell>
        <mxCell id="dsg2NjV3mB8BH0yMZsEI-73" value="&lt;font style=&quot;font-size: 6px;&quot;&gt;publish&lt;/font&gt;" style="edgeLabel;html=1;align=center;verticalAlign=middle;resizable=0;points=[];" vertex="1" connectable="0" parent="dsg2NjV3mB8BH0yMZsEI-72">
          <mxGeometry x="-0.3235" relative="1" as="geometry">
            <mxPoint as="offset" />
          </mxGeometry>
        </mxCell>
        <mxCell id="dsg2NjV3mB8BH0yMZsEI-74" value="Data Product" style="rounded=1;whiteSpace=wrap;html=1;" vertex="1" parent="1">
          <mxGeometry x="-41.75" y="655" width="88.5" height="45" as="geometry" />
        </mxCell>
        <mxCell id="dsg2NjV3mB8BH0yMZsEI-75" value="Data Contract" style="rounded=1;whiteSpace=wrap;html=1;" vertex="1" parent="1">
          <mxGeometry x="89" y="655" width="88.5" height="45" as="geometry" />
        </mxCell>
        <mxCell id="dsg2NjV3mB8BH0yMZsEI-76" value="Analytics" style="rounded=1;whiteSpace=wrap;html=1;" vertex="1" parent="1">
          <mxGeometry x="-41.75" y="585" width="88.5" height="45" as="geometry" />
        </mxCell>
        <mxCell id="dsg2NjV3mB8BH0yMZsEI-77" value="Production&amp;nbsp;Data" style="rounded=1;whiteSpace=wrap;html=1;" vertex="1" parent="1">
          <mxGeometry x="-162.5" y="620" width="88.5" height="45" as="geometry" />
        </mxCell>
        <mxCell id="dsg2NjV3mB8BH0yMZsEI-78" style="edgeStyle=orthogonalEdgeStyle;rounded=0;orthogonalLoop=1;jettySize=auto;html=1;entryX=0.5;entryY=0;entryDx=0;entryDy=0;dashed=1;fontSize=12;exitX=0.5;exitY=1;exitDx=0;exitDy=0;" edge="1" parent="1" source="dsg2NjV3mB8BH0yMZsEI-76" target="dsg2NjV3mB8BH0yMZsEI-74">
          <mxGeometry relative="1" as="geometry">
            <mxPoint x="2.230000000000018" y="620" as="sourcePoint" />
            <mxPoint x="2.230000000000018" y="690" as="targetPoint" />
          </mxGeometry>
        </mxCell>
        <mxCell id="dsg2NjV3mB8BH0yMZsEI-79" style="edgeStyle=orthogonalEdgeStyle;rounded=0;orthogonalLoop=1;jettySize=auto;html=1;exitX=1;exitY=0.5;exitDx=0;exitDy=0;entryX=0;entryY=0.5;entryDx=0;entryDy=0;" edge="1" parent="1" source="dsg2NjV3mB8BH0yMZsEI-77" target="dsg2NjV3mB8BH0yMZsEI-74">
          <mxGeometry relative="1" as="geometry">
            <mxPoint x="-76.75" y="677.39" as="sourcePoint" />
            <mxPoint x="-41.75" y="677.39" as="targetPoint" />
          </mxGeometry>
        </mxCell>
        <mxCell id="dsg2NjV3mB8BH0yMZsEI-80" value="&lt;span style=&quot;font-size: 6px;&quot;&gt;ingest&lt;/span&gt;" style="edgeLabel;html=1;align=center;verticalAlign=middle;resizable=0;points=[];" vertex="1" connectable="0" parent="dsg2NjV3mB8BH0yMZsEI-79">
          <mxGeometry x="-0.3235" relative="1" as="geometry">
            <mxPoint as="offset" />
          </mxGeometry>
        </mxCell>
        <mxCell id="dsg2NjV3mB8BH0yMZsEI-81" style="edgeStyle=orthogonalEdgeStyle;rounded=0;orthogonalLoop=1;jettySize=auto;html=1;dashed=1;fontSize=12;exitX=0.5;exitY=1;exitDx=0;exitDy=0;entryX=0.5;entryY=1;entryDx=0;entryDy=0;" edge="1" parent="1" target="dsg2NjV3mB8BH0yMZsEI-68">
          <mxGeometry relative="1" as="geometry">
            <mxPoint x="2.3999999999999773" y="700" as="sourcePoint" />
            <mxPoint x="2.5" y="725" as="targetPoint" />
            <Array as="points">
              <mxPoint x="2.5" y="735" />
              <mxPoint x="212.5" y="735" />
              <mxPoint x="212.5" y="537" />
            </Array>
          </mxGeometry>
        </mxCell>
        <mxCell id="dsg2NjV3mB8BH0yMZsEI-82" style="edgeStyle=orthogonalEdgeStyle;rounded=0;orthogonalLoop=1;jettySize=auto;html=1;entryX=0;entryY=0.5;entryDx=0;entryDy=0;" edge="1" parent="1" source="dsg2NjV3mB8BH0yMZsEI-84" target="dsg2NjV3mB8BH0yMZsEI-74">
          <mxGeometry relative="1" as="geometry" />
        </mxCell>
        <mxCell id="dsg2NjV3mB8BH0yMZsEI-83" value="&lt;font style=&quot;font-size: 6px;&quot;&gt;ingest&lt;/font&gt;" style="edgeLabel;html=1;align=center;verticalAlign=middle;resizable=0;points=[];" vertex="1" connectable="0" parent="dsg2NjV3mB8BH0yMZsEI-82">
          <mxGeometry x="-0.349" y="-1" relative="1" as="geometry">
            <mxPoint as="offset" />
          </mxGeometry>
        </mxCell>
        <mxCell id="dsg2NjV3mB8BH0yMZsEI-84" value="Trollies Data" style="rounded=1;whiteSpace=wrap;html=1;" vertex="1" parent="1">
          <mxGeometry x="-162.5" y="675" width="88.5" height="45" as="geometry" />
        </mxCell>
        <mxCell id="dsg2NjV3mB8BH0yMZsEI-85" value="" style="ellipse;whiteSpace=wrap;html=1;" vertex="1" parent="1">
          <mxGeometry x="349" y="572.5" width="151" height="100" as="geometry" />
        </mxCell>
        <mxCell id="dsg2NjV3mB8BH0yMZsEI-86" value="Data Product" style="rounded=1;whiteSpace=wrap;html=1;" vertex="1" parent="1">
          <mxGeometry x="380.25" y="600" width="88.5" height="45" as="geometry" />
        </mxCell>
        <mxCell id="dsg2NjV3mB8BH0yMZsEI-87" value="Delivery Domain" style="text;html=1;align=center;verticalAlign=middle;resizable=0;points=[];autosize=1;strokeColor=none;fillColor=none;" vertex="1" parent="1">
          <mxGeometry x="370.75" y="577.5" width="110" height="30" as="geometry" />
        </mxCell>
        <mxCell id="dsg2NjV3mB8BH0yMZsEI-88" value="" style="ellipse;whiteSpace=wrap;html=1;" vertex="1" parent="1">
          <mxGeometry x="174" y="745" width="370" height="230" as="geometry" />
        </mxCell>
        <mxCell id="dsg2NjV3mB8BH0yMZsEI-89" value="Delivery&amp;nbsp;Domain" style="text;html=1;align=center;verticalAlign=middle;resizable=0;points=[];autosize=1;strokeColor=none;fillColor=none;" vertex="1" parent="1">
          <mxGeometry x="304" y="745" width="110" height="30" as="geometry" />
        </mxCell>
        <mxCell id="dsg2NjV3mB8BH0yMZsEI-90" style="edgeStyle=orthogonalEdgeStyle;rounded=0;orthogonalLoop=1;jettySize=auto;html=1;" edge="1" parent="1" source="dsg2NjV3mB8BH0yMZsEI-92" target="dsg2NjV3mB8BH0yMZsEI-93">
          <mxGeometry relative="1" as="geometry" />
        </mxCell>
        <mxCell id="dsg2NjV3mB8BH0yMZsEI-91" value="&lt;font style=&quot;font-size: 6px;&quot;&gt;publish&lt;/font&gt;" style="edgeLabel;html=1;align=center;verticalAlign=middle;resizable=0;points=[];" vertex="1" connectable="0" parent="dsg2NjV3mB8BH0yMZsEI-90">
          <mxGeometry x="-0.3235" relative="1" as="geometry">
            <mxPoint as="offset" />
          </mxGeometry>
        </mxCell>
        <mxCell id="dsg2NjV3mB8BH0yMZsEI-92" value="Data Product" style="rounded=1;whiteSpace=wrap;html=1;" vertex="1" parent="1">
          <mxGeometry x="314.75" y="845" width="88.5" height="45" as="geometry" />
        </mxCell>
        <mxCell id="dsg2NjV3mB8BH0yMZsEI-93" value="Data Contract" style="rounded=1;whiteSpace=wrap;html=1;" vertex="1" parent="1">
          <mxGeometry x="445.5" y="845" width="88.5" height="45" as="geometry" />
        </mxCell>
        <mxCell id="dsg2NjV3mB8BH0yMZsEI-94" value="Analytics" style="rounded=1;whiteSpace=wrap;html=1;" vertex="1" parent="1">
          <mxGeometry x="314.75" y="775" width="88.5" height="45" as="geometry" />
        </mxCell>
        <mxCell id="dsg2NjV3mB8BH0yMZsEI-95" value="Delivery&amp;nbsp;&lt;span style=&quot;&quot;&gt;Data&lt;/span&gt;" style="rounded=1;whiteSpace=wrap;html=1;" vertex="1" parent="1">
          <mxGeometry x="194" y="810" width="88.5" height="45" as="geometry" />
        </mxCell>
        <mxCell id="dsg2NjV3mB8BH0yMZsEI-96" style="edgeStyle=orthogonalEdgeStyle;rounded=0;orthogonalLoop=1;jettySize=auto;html=1;entryX=0.5;entryY=0;entryDx=0;entryDy=0;dashed=1;fontSize=12;exitX=0.5;exitY=1;exitDx=0;exitDy=0;" edge="1" parent="1" source="dsg2NjV3mB8BH0yMZsEI-94" target="dsg2NjV3mB8BH0yMZsEI-92">
          <mxGeometry relative="1" as="geometry">
            <mxPoint x="358.73" y="810" as="sourcePoint" />
            <mxPoint x="358.73" y="880" as="targetPoint" />
          </mxGeometry>
        </mxCell>
        <mxCell id="dsg2NjV3mB8BH0yMZsEI-97" style="edgeStyle=orthogonalEdgeStyle;rounded=0;orthogonalLoop=1;jettySize=auto;html=1;exitX=1;exitY=0.5;exitDx=0;exitDy=0;entryX=0;entryY=0.5;entryDx=0;entryDy=0;" edge="1" parent="1" source="dsg2NjV3mB8BH0yMZsEI-95" target="dsg2NjV3mB8BH0yMZsEI-92">
          <mxGeometry relative="1" as="geometry">
            <mxPoint x="279.75" y="867.3899999999999" as="sourcePoint" />
            <mxPoint x="314.75" y="867.3899999999999" as="targetPoint" />
          </mxGeometry>
        </mxCell>
        <mxCell id="dsg2NjV3mB8BH0yMZsEI-98" value="&lt;span style=&quot;font-size: 6px;&quot;&gt;ingest&lt;/span&gt;" style="edgeLabel;html=1;align=center;verticalAlign=middle;resizable=0;points=[];" vertex="1" connectable="0" parent="dsg2NjV3mB8BH0yMZsEI-97">
          <mxGeometry x="-0.3235" relative="1" as="geometry">
            <mxPoint as="offset" />
          </mxGeometry>
        </mxCell>
        <mxCell id="dsg2NjV3mB8BH0yMZsEI-99" style="edgeStyle=orthogonalEdgeStyle;rounded=0;orthogonalLoop=1;jettySize=auto;html=1;dashed=1;fontSize=12;exitX=0.5;exitY=1;exitDx=0;exitDy=0;entryX=0.5;entryY=1;entryDx=0;entryDy=0;" edge="1" parent="1" target="dsg2NjV3mB8BH0yMZsEI-86">
          <mxGeometry relative="1" as="geometry">
            <mxPoint x="358.9000000000001" y="890" as="sourcePoint" />
            <mxPoint x="359" y="915" as="targetPoint" />
            <Array as="points">
              <mxPoint x="359" y="925" />
              <mxPoint x="569" y="925" />
              <mxPoint x="569" y="727" />
            </Array>
          </mxGeometry>
        </mxCell>
        <mxCell id="dsg2NjV3mB8BH0yMZsEI-100" style="edgeStyle=orthogonalEdgeStyle;rounded=0;orthogonalLoop=1;jettySize=auto;html=1;entryX=0;entryY=0.5;entryDx=0;entryDy=0;" edge="1" parent="1" source="dsg2NjV3mB8BH0yMZsEI-102" target="dsg2NjV3mB8BH0yMZsEI-92">
          <mxGeometry relative="1" as="geometry" />
        </mxCell>
        <mxCell id="dsg2NjV3mB8BH0yMZsEI-101" value="&lt;font style=&quot;font-size: 6px;&quot;&gt;ingest&lt;/font&gt;" style="edgeLabel;html=1;align=center;verticalAlign=middle;resizable=0;points=[];" vertex="1" connectable="0" parent="dsg2NjV3mB8BH0yMZsEI-100">
          <mxGeometry x="-0.349" y="-1" relative="1" as="geometry">
            <mxPoint as="offset" />
          </mxGeometry>
        </mxCell>
        <mxCell id="dsg2NjV3mB8BH0yMZsEI-102" value="Vehicles&lt;br&gt;&amp;nbsp;Data" style="rounded=1;whiteSpace=wrap;html=1;" vertex="1" parent="1">
          <mxGeometry x="194" y="865" width="88.5" height="45" as="geometry" />
        </mxCell>
        <mxCell id="dsg2NjV3mB8BH0yMZsEI-103" value="" style="ellipse;whiteSpace=wrap;html=1;" vertex="1" parent="1">
          <mxGeometry x="560" y="460" width="151" height="100" as="geometry" />
        </mxCell>
        <mxCell id="dsg2NjV3mB8BH0yMZsEI-104" value="Data Product" style="rounded=1;whiteSpace=wrap;html=1;" vertex="1" parent="1">
          <mxGeometry x="591.25" y="487.5" width="88.5" height="45" as="geometry" />
        </mxCell>
        <mxCell id="dsg2NjV3mB8BH0yMZsEI-105" value="Warehouse Domain" style="text;html=1;align=center;verticalAlign=middle;resizable=0;points=[];autosize=1;strokeColor=none;fillColor=none;" vertex="1" parent="1">
          <mxGeometry x="571.75" y="465" width="130" height="30" as="geometry" />
        </mxCell>
        <mxCell id="dsg2NjV3mB8BH0yMZsEI-106" value="" style="ellipse;whiteSpace=wrap;html=1;" vertex="1" parent="1">
          <mxGeometry x="691" y="562.5" width="370" height="230" as="geometry" />
        </mxCell>
        <mxCell id="dsg2NjV3mB8BH0yMZsEI-107" value="Warehouse Domain" style="text;html=1;align=center;verticalAlign=middle;resizable=0;points=[];autosize=1;strokeColor=none;fillColor=none;" vertex="1" parent="1">
          <mxGeometry x="811" y="562.5" width="130" height="30" as="geometry" />
        </mxCell>
        <mxCell id="dsg2NjV3mB8BH0yMZsEI-108" style="edgeStyle=orthogonalEdgeStyle;rounded=0;orthogonalLoop=1;jettySize=auto;html=1;" edge="1" parent="1" source="dsg2NjV3mB8BH0yMZsEI-110" target="dsg2NjV3mB8BH0yMZsEI-111">
          <mxGeometry relative="1" as="geometry" />
        </mxCell>
        <mxCell id="dsg2NjV3mB8BH0yMZsEI-109" value="&lt;font style=&quot;font-size: 6px;&quot;&gt;publish&lt;/font&gt;" style="edgeLabel;html=1;align=center;verticalAlign=middle;resizable=0;points=[];" vertex="1" connectable="0" parent="dsg2NjV3mB8BH0yMZsEI-108">
          <mxGeometry x="-0.3235" relative="1" as="geometry">
            <mxPoint as="offset" />
          </mxGeometry>
        </mxCell>
        <mxCell id="dsg2NjV3mB8BH0yMZsEI-110" value="Data Product" style="rounded=1;whiteSpace=wrap;html=1;" vertex="1" parent="1">
          <mxGeometry x="831.75" y="662.5" width="88.5" height="45" as="geometry" />
        </mxCell>
        <mxCell id="dsg2NjV3mB8BH0yMZsEI-111" value="Data Contract" style="rounded=1;whiteSpace=wrap;html=1;" vertex="1" parent="1">
          <mxGeometry x="962.5" y="662.5" width="88.5" height="45" as="geometry" />
        </mxCell>
        <mxCell id="dsg2NjV3mB8BH0yMZsEI-112" value="Analytics" style="rounded=1;whiteSpace=wrap;html=1;" vertex="1" parent="1">
          <mxGeometry x="831.75" y="592.5" width="88.5" height="45" as="geometry" />
        </mxCell>
        <mxCell id="dsg2NjV3mB8BH0yMZsEI-113" value="Inventory Data" style="rounded=1;whiteSpace=wrap;html=1;" vertex="1" parent="1">
          <mxGeometry x="711" y="627.5" width="88.5" height="45" as="geometry" />
        </mxCell>
        <mxCell id="dsg2NjV3mB8BH0yMZsEI-114" style="edgeStyle=orthogonalEdgeStyle;rounded=0;orthogonalLoop=1;jettySize=auto;html=1;entryX=0.5;entryY=0;entryDx=0;entryDy=0;dashed=1;fontSize=12;exitX=0.5;exitY=1;exitDx=0;exitDy=0;" edge="1" parent="1" source="dsg2NjV3mB8BH0yMZsEI-112" target="dsg2NjV3mB8BH0yMZsEI-110">
          <mxGeometry relative="1" as="geometry">
            <mxPoint x="875.73" y="627.5" as="sourcePoint" />
            <mxPoint x="875.73" y="697.5" as="targetPoint" />
          </mxGeometry>
        </mxCell>
        <mxCell id="dsg2NjV3mB8BH0yMZsEI-115" style="edgeStyle=orthogonalEdgeStyle;rounded=0;orthogonalLoop=1;jettySize=auto;html=1;exitX=1;exitY=0.5;exitDx=0;exitDy=0;entryX=0;entryY=0.5;entryDx=0;entryDy=0;" edge="1" parent="1" source="dsg2NjV3mB8BH0yMZsEI-113" target="dsg2NjV3mB8BH0yMZsEI-110">
          <mxGeometry relative="1" as="geometry">
            <mxPoint x="796.75" y="684.89" as="sourcePoint" />
            <mxPoint x="831.75" y="684.89" as="targetPoint" />
          </mxGeometry>
        </mxCell>
        <mxCell id="dsg2NjV3mB8BH0yMZsEI-116" value="&lt;span style=&quot;font-size: 6px;&quot;&gt;ingest&lt;/span&gt;" style="edgeLabel;html=1;align=center;verticalAlign=middle;resizable=0;points=[];" vertex="1" connectable="0" parent="dsg2NjV3mB8BH0yMZsEI-115">
          <mxGeometry x="-0.3235" relative="1" as="geometry">
            <mxPoint as="offset" />
          </mxGeometry>
        </mxCell>
        <mxCell id="dsg2NjV3mB8BH0yMZsEI-117" style="edgeStyle=orthogonalEdgeStyle;rounded=0;orthogonalLoop=1;jettySize=auto;html=1;dashed=1;fontSize=12;exitX=0.5;exitY=1;exitDx=0;exitDy=0;entryX=0.5;entryY=1;entryDx=0;entryDy=0;" edge="1" parent="1" target="dsg2NjV3mB8BH0yMZsEI-104">
          <mxGeometry relative="1" as="geometry">
            <mxPoint x="875.9000000000001" y="707.5" as="sourcePoint" />
            <mxPoint x="876" y="732.5" as="targetPoint" />
            <Array as="points">
              <mxPoint x="876" y="742" />
              <mxPoint x="636" y="742" />
            </Array>
          </mxGeometry>
        </mxCell>
        <mxCell id="dsg2NjV3mB8BH0yMZsEI-118" style="edgeStyle=orthogonalEdgeStyle;rounded=0;orthogonalLoop=1;jettySize=auto;html=1;entryX=0;entryY=0.5;entryDx=0;entryDy=0;" edge="1" parent="1" source="dsg2NjV3mB8BH0yMZsEI-120" target="dsg2NjV3mB8BH0yMZsEI-110">
          <mxGeometry relative="1" as="geometry" />
        </mxCell>
        <mxCell id="dsg2NjV3mB8BH0yMZsEI-119" value="&lt;font style=&quot;font-size: 6px;&quot;&gt;ingest&lt;/font&gt;" style="edgeLabel;html=1;align=center;verticalAlign=middle;resizable=0;points=[];" vertex="1" connectable="0" parent="dsg2NjV3mB8BH0yMZsEI-118">
          <mxGeometry x="-0.349" y="-1" relative="1" as="geometry">
            <mxPoint as="offset" />
          </mxGeometry>
        </mxCell>
        <mxCell id="dsg2NjV3mB8BH0yMZsEI-120" value="Food&lt;br&gt;&amp;nbsp;Data" style="rounded=1;whiteSpace=wrap;html=1;" vertex="1" parent="1">
          <mxGeometry x="711" y="682.5" width="88.5" height="45" as="geometry" />
        </mxCell>
        <mxCell id="dsg2NjV3mB8BH0yMZsEI-121" value="" style="ellipse;whiteSpace=wrap;html=1;" vertex="1" parent="1">
          <mxGeometry x="59.75" y="200" width="151" height="100" as="geometry" />
        </mxCell>
        <mxCell id="dsg2NjV3mB8BH0yMZsEI-122" value="Data Product" style="rounded=1;whiteSpace=wrap;html=1;" vertex="1" parent="1">
          <mxGeometry x="91" y="227.5" width="88.5" height="45" as="geometry" />
        </mxCell>
        <mxCell id="dsg2NjV3mB8BH0yMZsEI-123" value="Procurement Domain" style="text;html=1;align=center;verticalAlign=middle;resizable=0;points=[];autosize=1;strokeColor=none;fillColor=none;" vertex="1" parent="1">
          <mxGeometry x="66.5" y="205" width="140" height="30" as="geometry" />
        </mxCell>
        <mxCell id="dsg2NjV3mB8BH0yMZsEI-124" value="" style="ellipse;whiteSpace=wrap;html=1;" vertex="1" parent="1">
          <mxGeometry x="-259.25" y="290" width="370" height="230" as="geometry" />
        </mxCell>
        <mxCell id="dsg2NjV3mB8BH0yMZsEI-125" value="Procurement&amp;nbsp;Domain" style="text;html=1;align=center;verticalAlign=middle;resizable=0;points=[];autosize=1;strokeColor=none;fillColor=none;" vertex="1" parent="1">
          <mxGeometry x="-144.25" y="290" width="140" height="30" as="geometry" />
        </mxCell>
        <mxCell id="dsg2NjV3mB8BH0yMZsEI-126" style="edgeStyle=orthogonalEdgeStyle;rounded=0;orthogonalLoop=1;jettySize=auto;html=1;" edge="1" parent="1" source="dsg2NjV3mB8BH0yMZsEI-128" target="dsg2NjV3mB8BH0yMZsEI-129">
          <mxGeometry relative="1" as="geometry" />
        </mxCell>
        <mxCell id="dsg2NjV3mB8BH0yMZsEI-127" value="&lt;font style=&quot;font-size: 6px;&quot;&gt;publish&lt;/font&gt;" style="edgeLabel;html=1;align=center;verticalAlign=middle;resizable=0;points=[];" vertex="1" connectable="0" parent="dsg2NjV3mB8BH0yMZsEI-126">
          <mxGeometry x="-0.3235" relative="1" as="geometry">
            <mxPoint as="offset" />
          </mxGeometry>
        </mxCell>
        <mxCell id="dsg2NjV3mB8BH0yMZsEI-128" value="Data Product" style="rounded=1;whiteSpace=wrap;html=1;" vertex="1" parent="1">
          <mxGeometry x="-118.5" y="390" width="88.5" height="45" as="geometry" />
        </mxCell>
        <mxCell id="dsg2NjV3mB8BH0yMZsEI-129" value="Data Contract" style="rounded=1;whiteSpace=wrap;html=1;" vertex="1" parent="1">
          <mxGeometry x="12.25" y="390" width="88.5" height="45" as="geometry" />
        </mxCell>
        <mxCell id="dsg2NjV3mB8BH0yMZsEI-130" value="Analytics" style="rounded=1;whiteSpace=wrap;html=1;" vertex="1" parent="1">
          <mxGeometry x="-118.5" y="320" width="88.5" height="45" as="geometry" />
        </mxCell>
        <mxCell id="dsg2NjV3mB8BH0yMZsEI-131" value="Procurement&lt;span lang=&quot;en-US&quot;&gt;&amp;nbsp; &amp;nbsp;&amp;nbsp;&lt;/span&gt;&amp;nbsp;Data" style="rounded=1;whiteSpace=wrap;html=1;" vertex="1" parent="1">
          <mxGeometry x="-239.25" y="355" width="88.5" height="45" as="geometry" />
        </mxCell>
        <mxCell id="dsg2NjV3mB8BH0yMZsEI-132" style="edgeStyle=orthogonalEdgeStyle;rounded=0;orthogonalLoop=1;jettySize=auto;html=1;entryX=0.5;entryY=0;entryDx=0;entryDy=0;dashed=1;fontSize=12;exitX=0.5;exitY=1;exitDx=0;exitDy=0;" edge="1" parent="1" source="dsg2NjV3mB8BH0yMZsEI-130" target="dsg2NjV3mB8BH0yMZsEI-128">
          <mxGeometry relative="1" as="geometry">
            <mxPoint x="-74.51999999999998" y="355" as="sourcePoint" />
            <mxPoint x="-74.51999999999998" y="425" as="targetPoint" />
          </mxGeometry>
        </mxCell>
        <mxCell id="dsg2NjV3mB8BH0yMZsEI-133" style="edgeStyle=orthogonalEdgeStyle;rounded=0;orthogonalLoop=1;jettySize=auto;html=1;exitX=1;exitY=0.5;exitDx=0;exitDy=0;entryX=0;entryY=0.5;entryDx=0;entryDy=0;" edge="1" parent="1" source="dsg2NjV3mB8BH0yMZsEI-131" target="dsg2NjV3mB8BH0yMZsEI-128">
          <mxGeometry relative="1" as="geometry">
            <mxPoint x="-153.5" y="412.39" as="sourcePoint" />
            <mxPoint x="-118.5" y="412.39" as="targetPoint" />
          </mxGeometry>
        </mxCell>
        <mxCell id="dsg2NjV3mB8BH0yMZsEI-134" value="&lt;span style=&quot;font-size: 6px;&quot;&gt;ingest&lt;/span&gt;" style="edgeLabel;html=1;align=center;verticalAlign=middle;resizable=0;points=[];" vertex="1" connectable="0" parent="dsg2NjV3mB8BH0yMZsEI-133">
          <mxGeometry x="-0.3235" relative="1" as="geometry">
            <mxPoint as="offset" />
          </mxGeometry>
        </mxCell>
        <mxCell id="dsg2NjV3mB8BH0yMZsEI-135" style="edgeStyle=orthogonalEdgeStyle;rounded=0;orthogonalLoop=1;jettySize=auto;html=1;dashed=1;fontSize=12;exitX=0.5;exitY=1;exitDx=0;exitDy=0;entryX=0.5;entryY=1;entryDx=0;entryDy=0;" edge="1" parent="1" target="dsg2NjV3mB8BH0yMZsEI-122">
          <mxGeometry relative="1" as="geometry">
            <mxPoint x="-74.34999999999991" y="435" as="sourcePoint" />
            <mxPoint x="-74.25" y="460" as="targetPoint" />
            <Array as="points">
              <mxPoint x="-74.25" y="470" />
              <mxPoint x="135.75" y="470" />
              <mxPoint x="135.75" y="272" />
            </Array>
          </mxGeometry>
        </mxCell>
        <mxCell id="dsg2NjV3mB8BH0yMZsEI-136" style="edgeStyle=orthogonalEdgeStyle;rounded=0;orthogonalLoop=1;jettySize=auto;html=1;entryX=0;entryY=0.5;entryDx=0;entryDy=0;" edge="1" parent="1" source="dsg2NjV3mB8BH0yMZsEI-138" target="dsg2NjV3mB8BH0yMZsEI-128">
          <mxGeometry relative="1" as="geometry" />
        </mxCell>
        <mxCell id="dsg2NjV3mB8BH0yMZsEI-137" value="&lt;font style=&quot;font-size: 6px;&quot;&gt;ingest&lt;/font&gt;" style="edgeLabel;html=1;align=center;verticalAlign=middle;resizable=0;points=[];" vertex="1" connectable="0" parent="dsg2NjV3mB8BH0yMZsEI-136">
          <mxGeometry x="-0.349" y="-1" relative="1" as="geometry">
            <mxPoint as="offset" />
          </mxGeometry>
        </mxCell>
        <mxCell id="dsg2NjV3mB8BH0yMZsEI-138" value="Supplier&lt;br&gt;&amp;nbsp;Data" style="rounded=1;whiteSpace=wrap;html=1;" vertex="1" parent="1">
          <mxGeometry x="-239.25" y="410" width="88.5" height="45" as="geometry" />
        </mxCell>
        <mxCell id="dsg2NjV3mB8BH0yMZsEI-139" style="edgeStyle=orthogonalEdgeStyle;rounded=0;orthogonalLoop=1;jettySize=auto;html=1;dashed=1;fontSize=12;entryX=1;entryY=0.5;entryDx=0;entryDy=0;exitX=0.25;exitY=1;exitDx=0;exitDy=0;" edge="1" parent="1" source="dsg2NjV3mB8BH0yMZsEI-3" target="dsg2NjV3mB8BH0yMZsEI-68">
          <mxGeometry relative="1" as="geometry">
            <mxPoint x="468.72" y="180" as="sourcePoint" />
            <mxPoint x="218.72" y="300" as="targetPoint" />
            <Array as="points">
              <mxPoint x="440" y="300" />
              <mxPoint x="310" y="300" />
              <mxPoint x="310" y="515" />
            </Array>
          </mxGeometry>
        </mxCell>
        <mxCell id="dsg2NjV3mB8BH0yMZsEI-141" style="edgeStyle=orthogonalEdgeStyle;rounded=0;orthogonalLoop=1;jettySize=auto;html=1;dashed=1;fontSize=12;exitX=0.25;exitY=1;exitDx=0;exitDy=0;" edge="1" parent="1" target="dsg2NjV3mB8BH0yMZsEI-86">
          <mxGeometry relative="1" as="geometry">
            <mxPoint x="471.5" y="130" as="sourcePoint" />
            <mxPoint x="287.5" y="515" as="targetPoint" />
            <Array as="points">
              <mxPoint x="471" y="515" />
              <mxPoint x="425" y="515" />
            </Array>
          </mxGeometry>
        </mxCell>
        <mxCell id="dsg2NjV3mB8BH0yMZsEI-142" style="edgeStyle=orthogonalEdgeStyle;rounded=0;orthogonalLoop=1;jettySize=auto;html=1;dashed=1;fontSize=12;exitX=0.25;exitY=1;exitDx=0;exitDy=0;" edge="1" parent="1" target="dsg2NjV3mB8BH0yMZsEI-104">
          <mxGeometry relative="1" as="geometry">
            <mxPoint x="501.5" y="130" as="sourcePoint" />
            <mxPoint x="455" y="600" as="targetPoint" />
            <Array as="points">
              <mxPoint x="501" y="510" />
            </Array>
          </mxGeometry>
        </mxCell>
        <mxCell id="dsg2NjV3mB8BH0yMZsEI-143" style="edgeStyle=orthogonalEdgeStyle;rounded=0;orthogonalLoop=1;jettySize=auto;html=1;dashed=1;fontSize=12;exitX=0.25;exitY=1;exitDx=0;exitDy=0;entryX=0;entryY=0.5;entryDx=0;entryDy=0;" edge="1" parent="1" target="dsg2NjV3mB8BH0yMZsEI-26">
          <mxGeometry relative="1" as="geometry">
            <mxPoint x="530" y="120" as="sourcePoint" />
            <mxPoint x="619.5" y="500" as="targetPoint" />
            <Array as="points">
              <mxPoint x="530" y="250" />
            </Array>
          </mxGeometry>
        </mxCell>
      </root>
    </mxGraphModel>
  </diagram>
</mxfile>
